G04 #@! TF.FileFunction,Soldermask,Bot*
%FSLAX46Y46*%
G04 Gerber Fmt 4.6, Leading zero omitted, Abs format (unit mm)*
G04 Created by KiCad (PCBNEW (2015-11-03 BZR 6296)-product) date Tuesday, November 10, 2015 'PMt' 09:20:05 PM*
%MOMM*%
G01*
G04 APERTURE LIST*
%ADD10C,0.100000*%
%ADD11C,0.010000*%
%ADD12R,1.060000X0.630000*%
%ADD13R,1.060000X0.750000*%
%ADD14R,1.600000X1.150000*%
%ADD15R,1.150000X0.700000*%
%ADD16R,1.275000X1.125000*%
%ADD17R,1.600000X1.300000*%
%ADD18C,1.924000*%
G04 APERTURE END LIST*
D10*
D11*
G36*
X159688969Y-121113103D02*
X159651134Y-121114878D01*
X159615237Y-121117950D01*
X159579588Y-121122451D01*
X159542501Y-121128512D01*
X159517463Y-121133226D01*
X159480495Y-121140873D01*
X159445230Y-121149056D01*
X159410622Y-121158108D01*
X159375624Y-121168364D01*
X159339191Y-121180156D01*
X159300278Y-121193818D01*
X159257839Y-121209684D01*
X159210827Y-121228088D01*
X159175263Y-121242406D01*
X159128042Y-121261805D01*
X159080102Y-121281943D01*
X159031041Y-121303011D01*
X158980453Y-121325199D01*
X158927934Y-121348695D01*
X158873079Y-121373689D01*
X158815486Y-121400372D01*
X158754749Y-121428932D01*
X158690464Y-121459559D01*
X158622227Y-121492442D01*
X158549635Y-121527772D01*
X158472281Y-121565737D01*
X158389764Y-121606528D01*
X158301677Y-121650333D01*
X158243915Y-121679177D01*
X158162201Y-121719964D01*
X158086268Y-121757698D01*
X158015642Y-121792596D01*
X157949851Y-121824875D01*
X157888423Y-121854752D01*
X157830885Y-121882444D01*
X157776765Y-121908167D01*
X157725591Y-121932138D01*
X157676889Y-121954575D01*
X157630189Y-121975695D01*
X157585018Y-121995714D01*
X157540903Y-122014848D01*
X157497371Y-122033316D01*
X157453951Y-122051334D01*
X157410171Y-122069119D01*
X157365557Y-122086888D01*
X157319637Y-122104857D01*
X157302458Y-122111509D01*
X157278476Y-122120793D01*
X157256212Y-122129455D01*
X157236652Y-122137109D01*
X157220781Y-122143366D01*
X157209586Y-122147840D01*
X157204216Y-122150070D01*
X157194168Y-122154573D01*
X157209302Y-122173849D01*
X157221111Y-122187902D01*
X157237080Y-122205482D01*
X157256079Y-122225449D01*
X157276977Y-122246663D01*
X157298643Y-122267986D01*
X157319945Y-122288277D01*
X157339754Y-122306397D01*
X157348319Y-122313920D01*
X157423898Y-122375039D01*
X157505648Y-122433238D01*
X157593253Y-122488375D01*
X157686399Y-122540306D01*
X157784769Y-122588886D01*
X157888048Y-122633973D01*
X157995921Y-122675422D01*
X158108072Y-122713091D01*
X158224186Y-122746835D01*
X158343946Y-122776510D01*
X158383722Y-122785281D01*
X158442747Y-122797567D01*
X158496586Y-122808013D01*
X158546795Y-122816877D01*
X158594926Y-122824413D01*
X158642531Y-122830877D01*
X158691165Y-122836526D01*
X158701222Y-122837588D01*
X158721268Y-122839185D01*
X158746488Y-122840438D01*
X158775561Y-122841348D01*
X158807167Y-122841913D01*
X158839986Y-122842134D01*
X158872697Y-122842011D01*
X158903980Y-122841543D01*
X158932515Y-122840730D01*
X158956981Y-122839572D01*
X158976059Y-122838069D01*
X158979917Y-122837629D01*
X159050413Y-122826359D01*
X159115332Y-122810777D01*
X159174686Y-122790875D01*
X159228489Y-122766642D01*
X159276754Y-122738071D01*
X159319494Y-122705152D01*
X159356725Y-122667875D01*
X159388458Y-122626233D01*
X159414708Y-122580216D01*
X159434186Y-122533556D01*
X159443436Y-122505336D01*
X159450050Y-122479790D01*
X159454389Y-122454670D01*
X159456811Y-122427726D01*
X159457677Y-122396710D01*
X159457689Y-122386690D01*
X159457494Y-122329783D01*
X159480459Y-122327430D01*
X159503423Y-122325078D01*
X159553181Y-122359010D01*
X159552739Y-122408359D01*
X159548754Y-122466590D01*
X159537973Y-122523341D01*
X159520573Y-122578195D01*
X159496733Y-122630732D01*
X159466631Y-122680536D01*
X159430446Y-122727188D01*
X159405226Y-122754155D01*
X159364590Y-122791000D01*
X159320860Y-122823371D01*
X159273528Y-122851491D01*
X159222089Y-122875584D01*
X159166034Y-122895873D01*
X159104857Y-122912584D01*
X159038052Y-122925938D01*
X159004611Y-122931113D01*
X158983545Y-122933389D01*
X158956697Y-122935185D01*
X158925325Y-122936500D01*
X158890685Y-122937334D01*
X158854034Y-122937688D01*
X158816631Y-122937562D01*
X158779731Y-122936956D01*
X158744593Y-122935870D01*
X158712474Y-122934303D01*
X158684630Y-122932257D01*
X158673000Y-122931088D01*
X158558753Y-122915915D01*
X158443621Y-122896055D01*
X158328476Y-122871770D01*
X158214191Y-122843321D01*
X158101641Y-122810969D01*
X157991697Y-122774975D01*
X157885234Y-122735600D01*
X157783124Y-122693106D01*
X157686240Y-122647754D01*
X157631392Y-122619498D01*
X157548282Y-122572751D01*
X157469342Y-122523631D01*
X157395019Y-122472487D01*
X157325759Y-122419668D01*
X157262007Y-122365522D01*
X157204209Y-122310397D01*
X157152812Y-122254643D01*
X157131120Y-122228480D01*
X157116411Y-122210572D01*
X157105353Y-122198259D01*
X157097679Y-122191267D01*
X157093122Y-122189322D01*
X157092894Y-122189373D01*
X157078318Y-122193012D01*
X157057871Y-122197139D01*
X157032704Y-122201588D01*
X157003971Y-122206193D01*
X156972826Y-122210787D01*
X156940421Y-122215204D01*
X156907909Y-122219276D01*
X156876444Y-122222837D01*
X156847179Y-122225720D01*
X156833264Y-122226893D01*
X156803004Y-122228630D01*
X156769491Y-122229311D01*
X156732279Y-122228909D01*
X156690925Y-122227398D01*
X156644983Y-122224750D01*
X156594009Y-122220938D01*
X156537559Y-122215937D01*
X156475188Y-122209719D01*
X156406452Y-122202256D01*
X156385236Y-122199853D01*
X156287304Y-122188039D01*
X156182890Y-122174253D01*
X156072274Y-122158544D01*
X155955733Y-122140962D01*
X155833546Y-122121559D01*
X155705989Y-122100386D01*
X155573343Y-122077492D01*
X155435883Y-122052928D01*
X155293890Y-122026746D01*
X155147640Y-121998995D01*
X154997412Y-121969727D01*
X154843483Y-121938991D01*
X154686133Y-121906840D01*
X154525639Y-121873322D01*
X154362279Y-121838489D01*
X154196331Y-121802392D01*
X154168028Y-121796166D01*
X154136495Y-121789268D01*
X154106427Y-121782787D01*
X154078674Y-121776899D01*
X154054087Y-121771780D01*
X154033516Y-121767607D01*
X154017814Y-121764556D01*
X154007830Y-121762804D01*
X154005750Y-121762520D01*
X153978371Y-121762603D01*
X153949403Y-121768198D01*
X153920663Y-121778640D01*
X153893968Y-121793263D01*
X153871137Y-121811400D01*
X153870423Y-121812097D01*
X153859666Y-121824458D01*
X153846441Y-121842584D01*
X153831127Y-121865782D01*
X153814102Y-121893362D01*
X153795747Y-121924633D01*
X153776438Y-121958902D01*
X153756556Y-121995479D01*
X153736479Y-122033671D01*
X153716585Y-122072789D01*
X153697253Y-122112139D01*
X153678863Y-122151031D01*
X153661792Y-122188774D01*
X153653062Y-122208888D01*
X153625582Y-122277828D01*
X153603705Y-122342753D01*
X153587436Y-122403631D01*
X153576780Y-122460428D01*
X153571742Y-122513112D01*
X153572326Y-122561650D01*
X153578538Y-122606008D01*
X153589697Y-122644355D01*
X153599279Y-122664617D01*
X153612842Y-122686530D01*
X153628641Y-122707628D01*
X153644928Y-122725441D01*
X153650911Y-122730860D01*
X153666300Y-122742771D01*
X153682919Y-122753287D01*
X153701311Y-122762518D01*
X153722022Y-122770574D01*
X153745594Y-122777565D01*
X153772573Y-122783602D01*
X153803502Y-122788794D01*
X153838926Y-122793252D01*
X153879388Y-122797086D01*
X153925433Y-122800405D01*
X153977604Y-122803321D01*
X154018097Y-122805182D01*
X154037868Y-122805961D01*
X154063696Y-122806876D01*
X154094584Y-122807897D01*
X154129536Y-122808994D01*
X154167554Y-122810137D01*
X154207643Y-122811294D01*
X154248805Y-122812437D01*
X154290044Y-122813534D01*
X154310903Y-122814070D01*
X154416868Y-122816865D01*
X154516377Y-122819728D01*
X154610029Y-122822688D01*
X154698424Y-122825774D01*
X154782160Y-122829016D01*
X154861838Y-122832444D01*
X154938056Y-122836086D01*
X155011413Y-122839972D01*
X155082509Y-122844132D01*
X155151944Y-122848595D01*
X155220317Y-122853390D01*
X155288226Y-122858548D01*
X155356271Y-122864096D01*
X155392167Y-122867168D01*
X155544575Y-122881484D01*
X155691084Y-122897501D01*
X155832686Y-122915426D01*
X155970371Y-122935462D01*
X156105131Y-122957813D01*
X156237958Y-122982686D01*
X156369844Y-123010283D01*
X156501779Y-123040811D01*
X156634756Y-123074473D01*
X156769766Y-123111474D01*
X156907801Y-123152018D01*
X157049851Y-123196311D01*
X157157819Y-123231516D01*
X157214471Y-123250415D01*
X157266899Y-123268181D01*
X157315676Y-123285079D01*
X157361373Y-123301377D01*
X157404563Y-123317340D01*
X157445816Y-123333235D01*
X157485705Y-123349327D01*
X157524801Y-123365884D01*
X157563675Y-123383170D01*
X157602901Y-123401452D01*
X157643048Y-123420997D01*
X157684690Y-123442071D01*
X157728398Y-123464939D01*
X157774743Y-123489869D01*
X157824297Y-123517125D01*
X157877632Y-123546975D01*
X157935320Y-123579684D01*
X157997932Y-123615519D01*
X158062694Y-123652815D01*
X158112887Y-123681743D01*
X158157657Y-123707450D01*
X158197661Y-123730298D01*
X158233555Y-123750648D01*
X158265994Y-123768863D01*
X158295635Y-123785303D01*
X158323134Y-123800330D01*
X158349147Y-123814307D01*
X158374330Y-123827594D01*
X158399338Y-123840554D01*
X158424828Y-123853549D01*
X158447222Y-123864820D01*
X158512539Y-123896741D01*
X158573326Y-123924702D01*
X158630631Y-123949064D01*
X158685499Y-123970188D01*
X158738978Y-123988436D01*
X158792115Y-124004169D01*
X158845957Y-124017748D01*
X158901551Y-124029537D01*
X158949025Y-124038094D01*
X159008301Y-124047475D01*
X159062886Y-124054849D01*
X159114804Y-124060377D01*
X159166074Y-124064223D01*
X159218721Y-124066550D01*
X159274766Y-124067522D01*
X159313292Y-124067509D01*
X159339880Y-124067309D01*
X159364924Y-124067051D01*
X159387330Y-124066751D01*
X159406003Y-124066426D01*
X159419851Y-124066092D01*
X159427777Y-124065767D01*
X159427944Y-124065755D01*
X159518991Y-124056740D01*
X159608800Y-124043096D01*
X159696515Y-124025042D01*
X159781282Y-124002798D01*
X159862244Y-123976583D01*
X159938545Y-123946619D01*
X159996209Y-123919817D01*
X160082043Y-123872919D01*
X160165670Y-123819377D01*
X160247012Y-123759273D01*
X160325994Y-123692690D01*
X160402539Y-123619708D01*
X160476571Y-123540411D01*
X160548015Y-123454879D01*
X160616793Y-123363196D01*
X160682829Y-123265442D01*
X160746048Y-123161701D01*
X160806373Y-123052053D01*
X160810700Y-123043746D01*
X160847707Y-122968734D01*
X160882221Y-122890989D01*
X160914600Y-122809580D01*
X160945202Y-122723574D01*
X160974388Y-122632039D01*
X160990890Y-122575758D01*
X160998457Y-122549169D01*
X161244194Y-122450044D01*
X161283671Y-122434069D01*
X161321187Y-122418791D01*
X161356234Y-122404422D01*
X161388306Y-122391173D01*
X161416898Y-122379257D01*
X161441502Y-122368887D01*
X161461612Y-122360274D01*
X161476722Y-122353630D01*
X161486326Y-122349168D01*
X161489917Y-122347101D01*
X161489931Y-122347055D01*
X161487356Y-122344178D01*
X161479885Y-122336965D01*
X161467902Y-122325762D01*
X161451787Y-122310917D01*
X161431922Y-122292776D01*
X161408690Y-122271686D01*
X161382471Y-122247994D01*
X161353649Y-122222048D01*
X161322605Y-122194193D01*
X161289720Y-122164778D01*
X161264153Y-122141966D01*
X161038375Y-121940741D01*
X161023997Y-121901022D01*
X160995662Y-121830948D01*
X160962414Y-121764045D01*
X160923848Y-121699707D01*
X160879555Y-121637324D01*
X160829130Y-121576287D01*
X160772165Y-121515990D01*
X160755776Y-121499917D01*
X160688462Y-121439739D01*
X160615870Y-121384059D01*
X160538266Y-121333010D01*
X160455914Y-121286722D01*
X160369079Y-121245330D01*
X160278026Y-121208964D01*
X160183021Y-121177758D01*
X160084329Y-121151842D01*
X160038250Y-121141834D01*
X159993853Y-121133197D01*
X159954131Y-121126427D01*
X159917021Y-121121295D01*
X159880460Y-121117572D01*
X159842386Y-121115029D01*
X159800735Y-121113439D01*
X159777194Y-121112916D01*
X159730426Y-121112493D01*
X159688969Y-121113103D01*
X159688969Y-121113103D01*
G37*
X159688969Y-121113103D02*
X159651134Y-121114878D01*
X159615237Y-121117950D01*
X159579588Y-121122451D01*
X159542501Y-121128512D01*
X159517463Y-121133226D01*
X159480495Y-121140873D01*
X159445230Y-121149056D01*
X159410622Y-121158108D01*
X159375624Y-121168364D01*
X159339191Y-121180156D01*
X159300278Y-121193818D01*
X159257839Y-121209684D01*
X159210827Y-121228088D01*
X159175263Y-121242406D01*
X159128042Y-121261805D01*
X159080102Y-121281943D01*
X159031041Y-121303011D01*
X158980453Y-121325199D01*
X158927934Y-121348695D01*
X158873079Y-121373689D01*
X158815486Y-121400372D01*
X158754749Y-121428932D01*
X158690464Y-121459559D01*
X158622227Y-121492442D01*
X158549635Y-121527772D01*
X158472281Y-121565737D01*
X158389764Y-121606528D01*
X158301677Y-121650333D01*
X158243915Y-121679177D01*
X158162201Y-121719964D01*
X158086268Y-121757698D01*
X158015642Y-121792596D01*
X157949851Y-121824875D01*
X157888423Y-121854752D01*
X157830885Y-121882444D01*
X157776765Y-121908167D01*
X157725591Y-121932138D01*
X157676889Y-121954575D01*
X157630189Y-121975695D01*
X157585018Y-121995714D01*
X157540903Y-122014848D01*
X157497371Y-122033316D01*
X157453951Y-122051334D01*
X157410171Y-122069119D01*
X157365557Y-122086888D01*
X157319637Y-122104857D01*
X157302458Y-122111509D01*
X157278476Y-122120793D01*
X157256212Y-122129455D01*
X157236652Y-122137109D01*
X157220781Y-122143366D01*
X157209586Y-122147840D01*
X157204216Y-122150070D01*
X157194168Y-122154573D01*
X157209302Y-122173849D01*
X157221111Y-122187902D01*
X157237080Y-122205482D01*
X157256079Y-122225449D01*
X157276977Y-122246663D01*
X157298643Y-122267986D01*
X157319945Y-122288277D01*
X157339754Y-122306397D01*
X157348319Y-122313920D01*
X157423898Y-122375039D01*
X157505648Y-122433238D01*
X157593253Y-122488375D01*
X157686399Y-122540306D01*
X157784769Y-122588886D01*
X157888048Y-122633973D01*
X157995921Y-122675422D01*
X158108072Y-122713091D01*
X158224186Y-122746835D01*
X158343946Y-122776510D01*
X158383722Y-122785281D01*
X158442747Y-122797567D01*
X158496586Y-122808013D01*
X158546795Y-122816877D01*
X158594926Y-122824413D01*
X158642531Y-122830877D01*
X158691165Y-122836526D01*
X158701222Y-122837588D01*
X158721268Y-122839185D01*
X158746488Y-122840438D01*
X158775561Y-122841348D01*
X158807167Y-122841913D01*
X158839986Y-122842134D01*
X158872697Y-122842011D01*
X158903980Y-122841543D01*
X158932515Y-122840730D01*
X158956981Y-122839572D01*
X158976059Y-122838069D01*
X158979917Y-122837629D01*
X159050413Y-122826359D01*
X159115332Y-122810777D01*
X159174686Y-122790875D01*
X159228489Y-122766642D01*
X159276754Y-122738071D01*
X159319494Y-122705152D01*
X159356725Y-122667875D01*
X159388458Y-122626233D01*
X159414708Y-122580216D01*
X159434186Y-122533556D01*
X159443436Y-122505336D01*
X159450050Y-122479790D01*
X159454389Y-122454670D01*
X159456811Y-122427726D01*
X159457677Y-122396710D01*
X159457689Y-122386690D01*
X159457494Y-122329783D01*
X159480459Y-122327430D01*
X159503423Y-122325078D01*
X159553181Y-122359010D01*
X159552739Y-122408359D01*
X159548754Y-122466590D01*
X159537973Y-122523341D01*
X159520573Y-122578195D01*
X159496733Y-122630732D01*
X159466631Y-122680536D01*
X159430446Y-122727188D01*
X159405226Y-122754155D01*
X159364590Y-122791000D01*
X159320860Y-122823371D01*
X159273528Y-122851491D01*
X159222089Y-122875584D01*
X159166034Y-122895873D01*
X159104857Y-122912584D01*
X159038052Y-122925938D01*
X159004611Y-122931113D01*
X158983545Y-122933389D01*
X158956697Y-122935185D01*
X158925325Y-122936500D01*
X158890685Y-122937334D01*
X158854034Y-122937688D01*
X158816631Y-122937562D01*
X158779731Y-122936956D01*
X158744593Y-122935870D01*
X158712474Y-122934303D01*
X158684630Y-122932257D01*
X158673000Y-122931088D01*
X158558753Y-122915915D01*
X158443621Y-122896055D01*
X158328476Y-122871770D01*
X158214191Y-122843321D01*
X158101641Y-122810969D01*
X157991697Y-122774975D01*
X157885234Y-122735600D01*
X157783124Y-122693106D01*
X157686240Y-122647754D01*
X157631392Y-122619498D01*
X157548282Y-122572751D01*
X157469342Y-122523631D01*
X157395019Y-122472487D01*
X157325759Y-122419668D01*
X157262007Y-122365522D01*
X157204209Y-122310397D01*
X157152812Y-122254643D01*
X157131120Y-122228480D01*
X157116411Y-122210572D01*
X157105353Y-122198259D01*
X157097679Y-122191267D01*
X157093122Y-122189322D01*
X157092894Y-122189373D01*
X157078318Y-122193012D01*
X157057871Y-122197139D01*
X157032704Y-122201588D01*
X157003971Y-122206193D01*
X156972826Y-122210787D01*
X156940421Y-122215204D01*
X156907909Y-122219276D01*
X156876444Y-122222837D01*
X156847179Y-122225720D01*
X156833264Y-122226893D01*
X156803004Y-122228630D01*
X156769491Y-122229311D01*
X156732279Y-122228909D01*
X156690925Y-122227398D01*
X156644983Y-122224750D01*
X156594009Y-122220938D01*
X156537559Y-122215937D01*
X156475188Y-122209719D01*
X156406452Y-122202256D01*
X156385236Y-122199853D01*
X156287304Y-122188039D01*
X156182890Y-122174253D01*
X156072274Y-122158544D01*
X155955733Y-122140962D01*
X155833546Y-122121559D01*
X155705989Y-122100386D01*
X155573343Y-122077492D01*
X155435883Y-122052928D01*
X155293890Y-122026746D01*
X155147640Y-121998995D01*
X154997412Y-121969727D01*
X154843483Y-121938991D01*
X154686133Y-121906840D01*
X154525639Y-121873322D01*
X154362279Y-121838489D01*
X154196331Y-121802392D01*
X154168028Y-121796166D01*
X154136495Y-121789268D01*
X154106427Y-121782787D01*
X154078674Y-121776899D01*
X154054087Y-121771780D01*
X154033516Y-121767607D01*
X154017814Y-121764556D01*
X154007830Y-121762804D01*
X154005750Y-121762520D01*
X153978371Y-121762603D01*
X153949403Y-121768198D01*
X153920663Y-121778640D01*
X153893968Y-121793263D01*
X153871137Y-121811400D01*
X153870423Y-121812097D01*
X153859666Y-121824458D01*
X153846441Y-121842584D01*
X153831127Y-121865782D01*
X153814102Y-121893362D01*
X153795747Y-121924633D01*
X153776438Y-121958902D01*
X153756556Y-121995479D01*
X153736479Y-122033671D01*
X153716585Y-122072789D01*
X153697253Y-122112139D01*
X153678863Y-122151031D01*
X153661792Y-122188774D01*
X153653062Y-122208888D01*
X153625582Y-122277828D01*
X153603705Y-122342753D01*
X153587436Y-122403631D01*
X153576780Y-122460428D01*
X153571742Y-122513112D01*
X153572326Y-122561650D01*
X153578538Y-122606008D01*
X153589697Y-122644355D01*
X153599279Y-122664617D01*
X153612842Y-122686530D01*
X153628641Y-122707628D01*
X153644928Y-122725441D01*
X153650911Y-122730860D01*
X153666300Y-122742771D01*
X153682919Y-122753287D01*
X153701311Y-122762518D01*
X153722022Y-122770574D01*
X153745594Y-122777565D01*
X153772573Y-122783602D01*
X153803502Y-122788794D01*
X153838926Y-122793252D01*
X153879388Y-122797086D01*
X153925433Y-122800405D01*
X153977604Y-122803321D01*
X154018097Y-122805182D01*
X154037868Y-122805961D01*
X154063696Y-122806876D01*
X154094584Y-122807897D01*
X154129536Y-122808994D01*
X154167554Y-122810137D01*
X154207643Y-122811294D01*
X154248805Y-122812437D01*
X154290044Y-122813534D01*
X154310903Y-122814070D01*
X154416868Y-122816865D01*
X154516377Y-122819728D01*
X154610029Y-122822688D01*
X154698424Y-122825774D01*
X154782160Y-122829016D01*
X154861838Y-122832444D01*
X154938056Y-122836086D01*
X155011413Y-122839972D01*
X155082509Y-122844132D01*
X155151944Y-122848595D01*
X155220317Y-122853390D01*
X155288226Y-122858548D01*
X155356271Y-122864096D01*
X155392167Y-122867168D01*
X155544575Y-122881484D01*
X155691084Y-122897501D01*
X155832686Y-122915426D01*
X155970371Y-122935462D01*
X156105131Y-122957813D01*
X156237958Y-122982686D01*
X156369844Y-123010283D01*
X156501779Y-123040811D01*
X156634756Y-123074473D01*
X156769766Y-123111474D01*
X156907801Y-123152018D01*
X157049851Y-123196311D01*
X157157819Y-123231516D01*
X157214471Y-123250415D01*
X157266899Y-123268181D01*
X157315676Y-123285079D01*
X157361373Y-123301377D01*
X157404563Y-123317340D01*
X157445816Y-123333235D01*
X157485705Y-123349327D01*
X157524801Y-123365884D01*
X157563675Y-123383170D01*
X157602901Y-123401452D01*
X157643048Y-123420997D01*
X157684690Y-123442071D01*
X157728398Y-123464939D01*
X157774743Y-123489869D01*
X157824297Y-123517125D01*
X157877632Y-123546975D01*
X157935320Y-123579684D01*
X157997932Y-123615519D01*
X158062694Y-123652815D01*
X158112887Y-123681743D01*
X158157657Y-123707450D01*
X158197661Y-123730298D01*
X158233555Y-123750648D01*
X158265994Y-123768863D01*
X158295635Y-123785303D01*
X158323134Y-123800330D01*
X158349147Y-123814307D01*
X158374330Y-123827594D01*
X158399338Y-123840554D01*
X158424828Y-123853549D01*
X158447222Y-123864820D01*
X158512539Y-123896741D01*
X158573326Y-123924702D01*
X158630631Y-123949064D01*
X158685499Y-123970188D01*
X158738978Y-123988436D01*
X158792115Y-124004169D01*
X158845957Y-124017748D01*
X158901551Y-124029537D01*
X158949025Y-124038094D01*
X159008301Y-124047475D01*
X159062886Y-124054849D01*
X159114804Y-124060377D01*
X159166074Y-124064223D01*
X159218721Y-124066550D01*
X159274766Y-124067522D01*
X159313292Y-124067509D01*
X159339880Y-124067309D01*
X159364924Y-124067051D01*
X159387330Y-124066751D01*
X159406003Y-124066426D01*
X159419851Y-124066092D01*
X159427777Y-124065767D01*
X159427944Y-124065755D01*
X159518991Y-124056740D01*
X159608800Y-124043096D01*
X159696515Y-124025042D01*
X159781282Y-124002798D01*
X159862244Y-123976583D01*
X159938545Y-123946619D01*
X159996209Y-123919817D01*
X160082043Y-123872919D01*
X160165670Y-123819377D01*
X160247012Y-123759273D01*
X160325994Y-123692690D01*
X160402539Y-123619708D01*
X160476571Y-123540411D01*
X160548015Y-123454879D01*
X160616793Y-123363196D01*
X160682829Y-123265442D01*
X160746048Y-123161701D01*
X160806373Y-123052053D01*
X160810700Y-123043746D01*
X160847707Y-122968734D01*
X160882221Y-122890989D01*
X160914600Y-122809580D01*
X160945202Y-122723574D01*
X160974388Y-122632039D01*
X160990890Y-122575758D01*
X160998457Y-122549169D01*
X161244194Y-122450044D01*
X161283671Y-122434069D01*
X161321187Y-122418791D01*
X161356234Y-122404422D01*
X161388306Y-122391173D01*
X161416898Y-122379257D01*
X161441502Y-122368887D01*
X161461612Y-122360274D01*
X161476722Y-122353630D01*
X161486326Y-122349168D01*
X161489917Y-122347101D01*
X161489931Y-122347055D01*
X161487356Y-122344178D01*
X161479885Y-122336965D01*
X161467902Y-122325762D01*
X161451787Y-122310917D01*
X161431922Y-122292776D01*
X161408690Y-122271686D01*
X161382471Y-122247994D01*
X161353649Y-122222048D01*
X161322605Y-122194193D01*
X161289720Y-122164778D01*
X161264153Y-122141966D01*
X161038375Y-121940741D01*
X161023997Y-121901022D01*
X160995662Y-121830948D01*
X160962414Y-121764045D01*
X160923848Y-121699707D01*
X160879555Y-121637324D01*
X160829130Y-121576287D01*
X160772165Y-121515990D01*
X160755776Y-121499917D01*
X160688462Y-121439739D01*
X160615870Y-121384059D01*
X160538266Y-121333010D01*
X160455914Y-121286722D01*
X160369079Y-121245330D01*
X160278026Y-121208964D01*
X160183021Y-121177758D01*
X160084329Y-121151842D01*
X160038250Y-121141834D01*
X159993853Y-121133197D01*
X159954131Y-121126427D01*
X159917021Y-121121295D01*
X159880460Y-121117572D01*
X159842386Y-121115029D01*
X159800735Y-121113439D01*
X159777194Y-121112916D01*
X159730426Y-121112493D01*
X159688969Y-121113103D01*
D12*
X161005000Y-115800000D03*
X158295000Y-115800000D03*
X161005000Y-100200000D03*
X158295000Y-100200000D03*
X161005000Y-115400000D03*
X161005000Y-115000000D03*
X161005000Y-114600000D03*
X161005000Y-114200000D03*
X161005000Y-113800000D03*
X161005000Y-113400000D03*
X161005000Y-113000000D03*
X161005000Y-112600000D03*
X161005000Y-112200000D03*
X161005000Y-111800000D03*
X161005000Y-111400000D03*
X161005000Y-111000000D03*
X161005000Y-110600000D03*
X161005000Y-110200000D03*
X161005000Y-109800000D03*
X161005000Y-109400000D03*
X161005000Y-109000000D03*
X161005000Y-108600000D03*
X161005000Y-108200000D03*
X161005000Y-107800000D03*
X161005000Y-107400000D03*
X161005000Y-107000000D03*
X161005000Y-106600000D03*
X161005000Y-106200000D03*
X161005000Y-105800000D03*
X161005000Y-105400000D03*
X161005000Y-105000000D03*
X161005000Y-104600000D03*
X161005000Y-104200000D03*
X161005000Y-103800000D03*
X161005000Y-103400000D03*
X161005000Y-103000000D03*
X161005000Y-102600000D03*
X161005000Y-102200000D03*
X161005000Y-101800000D03*
X161005000Y-101400000D03*
X161005000Y-101000000D03*
X161005000Y-100600000D03*
D13*
X161005000Y-99725000D03*
X158295000Y-99725000D03*
X161005000Y-116275000D03*
X158295000Y-116275000D03*
D12*
X158295000Y-100600000D03*
X158295000Y-101000000D03*
X158295000Y-101400000D03*
X158295000Y-101800000D03*
X158295000Y-102200000D03*
X158295000Y-102600000D03*
X158295000Y-103000000D03*
X158295000Y-103400000D03*
X158295000Y-103800000D03*
X158295000Y-104200000D03*
X158295000Y-104600000D03*
X158295000Y-105000000D03*
X158295000Y-105400000D03*
X158295000Y-105800000D03*
X158295000Y-106200000D03*
X158295000Y-106600000D03*
X158295000Y-107000000D03*
X158295000Y-107400000D03*
X158295000Y-107800000D03*
X158295000Y-108200000D03*
X158295000Y-108600000D03*
X158295000Y-109000000D03*
X158295000Y-109400000D03*
X158295000Y-109800000D03*
X158295000Y-110200000D03*
X158295000Y-110600000D03*
X158295000Y-111000000D03*
X158295000Y-111400000D03*
X158295000Y-111800000D03*
X158295000Y-112200000D03*
X158295000Y-112600000D03*
X158295000Y-113000000D03*
X158295000Y-113400000D03*
X158295000Y-113800000D03*
X158295000Y-114200000D03*
X158295000Y-114600000D03*
X158295000Y-115000000D03*
X158295000Y-115400000D03*
D14*
X156250000Y-95900000D03*
X158150000Y-95900000D03*
D15*
X158712500Y-92862500D03*
X158712500Y-93362500D03*
X158712500Y-93862500D03*
X158712500Y-94362500D03*
X155812500Y-94362500D03*
X155812500Y-93862500D03*
X155812500Y-93362500D03*
X155812500Y-92862500D03*
D16*
X156825000Y-93975000D03*
X156825000Y-93250000D03*
X157700000Y-93975000D03*
X157700000Y-93250000D03*
D17*
X156550000Y-91200000D03*
X154350000Y-91200000D03*
D18*
X158550000Y-91250000D03*
M02*
