G04 #@! TF.FileFunction,Legend,Top*
%FSLAX46Y46*%
G04 Gerber Fmt 4.6, Leading zero omitted, Abs format (unit mm)*
G04 Created by KiCad (PCBNEW (2015-11-03 BZR 6296)-product) date Tuesday, November 10, 2015 'PMt' 09:20:05 PM*
%MOMM*%
G01*
G04 APERTURE LIST*
%ADD10C,0.100000*%
%ADD11C,0.150000*%
G04 APERTURE END LIST*
D10*
D11*
X154434762Y-119194762D02*
X154339524Y-119242381D01*
X154149047Y-119242381D01*
X154053809Y-119194762D01*
X154006190Y-119147143D01*
X153958571Y-119051905D01*
X153958571Y-118766190D01*
X154006190Y-118670952D01*
X154053809Y-118623333D01*
X154149047Y-118575714D01*
X154339524Y-118575714D01*
X154434762Y-118623333D01*
X154863333Y-119242381D02*
X154863333Y-118242381D01*
X154958571Y-118861429D02*
X155244286Y-119242381D01*
X155244286Y-118575714D02*
X154863333Y-118956667D01*
X156101429Y-119242381D02*
X156101429Y-118242381D01*
X156101429Y-119194762D02*
X156006191Y-119242381D01*
X155815714Y-119242381D01*
X155720476Y-119194762D01*
X155672857Y-119147143D01*
X155625238Y-119051905D01*
X155625238Y-118766190D01*
X155672857Y-118670952D01*
X155720476Y-118623333D01*
X155815714Y-118575714D01*
X156006191Y-118575714D01*
X156101429Y-118623333D01*
X156577619Y-119147143D02*
X156625238Y-119194762D01*
X156577619Y-119242381D01*
X156530000Y-119194762D01*
X156577619Y-119147143D01*
X156577619Y-119242381D01*
X156910952Y-118575714D02*
X157291904Y-118575714D01*
X157053809Y-118242381D02*
X157053809Y-119099524D01*
X157101428Y-119194762D01*
X157196666Y-119242381D01*
X157291904Y-119242381D01*
X158006191Y-119194762D02*
X157910953Y-119242381D01*
X157720476Y-119242381D01*
X157625238Y-119194762D01*
X157577619Y-119099524D01*
X157577619Y-118718571D01*
X157625238Y-118623333D01*
X157720476Y-118575714D01*
X157910953Y-118575714D01*
X158006191Y-118623333D01*
X158053810Y-118718571D01*
X158053810Y-118813810D01*
X157577619Y-118909048D01*
X158910953Y-119194762D02*
X158815715Y-119242381D01*
X158625238Y-119242381D01*
X158530000Y-119194762D01*
X158482381Y-119147143D01*
X158434762Y-119051905D01*
X158434762Y-118766190D01*
X158482381Y-118670952D01*
X158530000Y-118623333D01*
X158625238Y-118575714D01*
X158815715Y-118575714D01*
X158910953Y-118623333D01*
X159339524Y-119242381D02*
X159339524Y-118242381D01*
X159768096Y-119242381D02*
X159768096Y-118718571D01*
X159720477Y-118623333D01*
X159625239Y-118575714D01*
X159482381Y-118575714D01*
X159387143Y-118623333D01*
X159339524Y-118670952D01*
X160958572Y-118194762D02*
X160101429Y-119480476D01*
X161291905Y-118575714D02*
X161291905Y-119575714D01*
X161291905Y-118623333D02*
X161387143Y-118575714D01*
X161577620Y-118575714D01*
X161672858Y-118623333D01*
X161720477Y-118670952D01*
X161768096Y-118766190D01*
X161768096Y-119051905D01*
X161720477Y-119147143D01*
X161672858Y-119194762D01*
X161577620Y-119242381D01*
X161387143Y-119242381D01*
X161291905Y-119194762D01*
X162053810Y-118575714D02*
X162434762Y-118575714D01*
X162196667Y-118242381D02*
X162196667Y-119099524D01*
X162244286Y-119194762D01*
X162339524Y-119242381D01*
X162434762Y-119242381D01*
X163482382Y-118194762D02*
X162625239Y-119480476D01*
X163720477Y-118575714D02*
X163958572Y-119242381D01*
X164196668Y-118575714D01*
X165101430Y-119242381D02*
X164530001Y-119242381D01*
X164815715Y-119242381D02*
X164815715Y-118242381D01*
X164720477Y-118385238D01*
X164625239Y-118480476D01*
X164530001Y-118528095D01*
X159109620Y-94920560D02*
X159678580Y-94920560D01*
X159678580Y-94920560D02*
X159678580Y-94509080D01*
X164947700Y-98920560D02*
X165516660Y-98920560D01*
X165516660Y-98920560D02*
X165516660Y-98509080D01*
X159259620Y-97370560D02*
X159828580Y-97370560D01*
X159828580Y-97370560D02*
X159828580Y-96959080D01*
M02*
