G04 #@! TF.FileFunction,Soldermask,Top*
%FSLAX46Y46*%
G04 Gerber Fmt 4.6, Leading zero omitted, Abs format (unit mm)*
G04 Created by KiCad (PCBNEW (2015-11-03 BZR 6296)-product) date Tuesday, November 10, 2015 'PMt' 09:20:05 PM*
%MOMM*%
G01*
G04 APERTURE LIST*
%ADD10C,0.100000*%
%ADD11C,0.010000*%
%ADD12R,1.100000X0.600000*%
%ADD13R,1.901140X0.798780*%
G04 APERTURE END LIST*
D10*
D11*
G36*
X155371031Y-121113103D02*
X155408866Y-121114878D01*
X155444763Y-121117950D01*
X155480412Y-121122451D01*
X155517499Y-121128512D01*
X155542537Y-121133226D01*
X155579505Y-121140873D01*
X155614770Y-121149056D01*
X155649378Y-121158108D01*
X155684376Y-121168364D01*
X155720809Y-121180156D01*
X155759722Y-121193818D01*
X155802161Y-121209684D01*
X155849173Y-121228088D01*
X155884737Y-121242406D01*
X155931958Y-121261805D01*
X155979898Y-121281943D01*
X156028959Y-121303011D01*
X156079547Y-121325199D01*
X156132066Y-121348695D01*
X156186921Y-121373689D01*
X156244514Y-121400372D01*
X156305251Y-121428932D01*
X156369536Y-121459559D01*
X156437773Y-121492442D01*
X156510365Y-121527772D01*
X156587719Y-121565737D01*
X156670236Y-121606528D01*
X156758323Y-121650333D01*
X156816085Y-121679177D01*
X156897799Y-121719964D01*
X156973732Y-121757698D01*
X157044358Y-121792596D01*
X157110149Y-121824875D01*
X157171577Y-121854752D01*
X157229115Y-121882444D01*
X157283235Y-121908167D01*
X157334409Y-121932138D01*
X157383111Y-121954575D01*
X157429811Y-121975695D01*
X157474982Y-121995714D01*
X157519097Y-122014848D01*
X157562629Y-122033316D01*
X157606049Y-122051334D01*
X157649829Y-122069119D01*
X157694443Y-122086888D01*
X157740363Y-122104857D01*
X157757542Y-122111509D01*
X157781524Y-122120793D01*
X157803788Y-122129455D01*
X157823348Y-122137109D01*
X157839219Y-122143366D01*
X157850414Y-122147840D01*
X157855784Y-122150070D01*
X157865832Y-122154573D01*
X157850698Y-122173849D01*
X157838889Y-122187902D01*
X157822920Y-122205482D01*
X157803921Y-122225449D01*
X157783023Y-122246663D01*
X157761357Y-122267986D01*
X157740055Y-122288277D01*
X157720246Y-122306397D01*
X157711681Y-122313920D01*
X157636102Y-122375039D01*
X157554352Y-122433238D01*
X157466747Y-122488375D01*
X157373601Y-122540306D01*
X157275231Y-122588886D01*
X157171952Y-122633973D01*
X157064079Y-122675422D01*
X156951928Y-122713091D01*
X156835814Y-122746835D01*
X156716054Y-122776510D01*
X156676278Y-122785281D01*
X156617253Y-122797567D01*
X156563414Y-122808013D01*
X156513205Y-122816877D01*
X156465074Y-122824413D01*
X156417469Y-122830877D01*
X156368835Y-122836526D01*
X156358778Y-122837588D01*
X156338732Y-122839185D01*
X156313512Y-122840438D01*
X156284439Y-122841348D01*
X156252833Y-122841913D01*
X156220014Y-122842134D01*
X156187303Y-122842011D01*
X156156020Y-122841543D01*
X156127485Y-122840730D01*
X156103019Y-122839572D01*
X156083941Y-122838069D01*
X156080083Y-122837629D01*
X156009587Y-122826359D01*
X155944668Y-122810777D01*
X155885314Y-122790875D01*
X155831511Y-122766642D01*
X155783246Y-122738071D01*
X155740506Y-122705152D01*
X155703275Y-122667875D01*
X155671542Y-122626233D01*
X155645292Y-122580216D01*
X155625814Y-122533556D01*
X155616564Y-122505336D01*
X155609950Y-122479790D01*
X155605611Y-122454670D01*
X155603189Y-122427726D01*
X155602323Y-122396710D01*
X155602311Y-122386690D01*
X155602506Y-122329783D01*
X155579541Y-122327430D01*
X155556577Y-122325078D01*
X155506819Y-122359010D01*
X155507261Y-122408359D01*
X155511246Y-122466590D01*
X155522027Y-122523341D01*
X155539427Y-122578195D01*
X155563267Y-122630732D01*
X155593369Y-122680536D01*
X155629554Y-122727188D01*
X155654774Y-122754155D01*
X155695410Y-122791000D01*
X155739140Y-122823371D01*
X155786472Y-122851491D01*
X155837911Y-122875584D01*
X155893966Y-122895873D01*
X155955143Y-122912584D01*
X156021948Y-122925938D01*
X156055389Y-122931113D01*
X156076455Y-122933389D01*
X156103303Y-122935185D01*
X156134675Y-122936500D01*
X156169315Y-122937334D01*
X156205966Y-122937688D01*
X156243369Y-122937562D01*
X156280269Y-122936956D01*
X156315407Y-122935870D01*
X156347526Y-122934303D01*
X156375370Y-122932257D01*
X156387000Y-122931088D01*
X156501247Y-122915915D01*
X156616379Y-122896055D01*
X156731524Y-122871770D01*
X156845809Y-122843321D01*
X156958359Y-122810969D01*
X157068303Y-122774975D01*
X157174766Y-122735600D01*
X157276876Y-122693106D01*
X157373760Y-122647754D01*
X157428608Y-122619498D01*
X157511718Y-122572751D01*
X157590658Y-122523631D01*
X157664981Y-122472487D01*
X157734241Y-122419668D01*
X157797993Y-122365522D01*
X157855791Y-122310397D01*
X157907188Y-122254643D01*
X157928880Y-122228480D01*
X157943589Y-122210572D01*
X157954647Y-122198259D01*
X157962321Y-122191267D01*
X157966878Y-122189322D01*
X157967106Y-122189373D01*
X157981682Y-122193012D01*
X158002129Y-122197139D01*
X158027296Y-122201588D01*
X158056029Y-122206193D01*
X158087174Y-122210787D01*
X158119579Y-122215204D01*
X158152091Y-122219276D01*
X158183556Y-122222837D01*
X158212821Y-122225720D01*
X158226736Y-122226893D01*
X158256996Y-122228630D01*
X158290509Y-122229311D01*
X158327721Y-122228909D01*
X158369075Y-122227398D01*
X158415017Y-122224750D01*
X158465991Y-122220938D01*
X158522441Y-122215937D01*
X158584812Y-122209719D01*
X158653548Y-122202256D01*
X158674764Y-122199853D01*
X158772696Y-122188039D01*
X158877110Y-122174253D01*
X158987726Y-122158544D01*
X159104267Y-122140962D01*
X159226454Y-122121559D01*
X159354011Y-122100386D01*
X159486657Y-122077492D01*
X159624117Y-122052928D01*
X159766110Y-122026746D01*
X159912360Y-121998995D01*
X160062588Y-121969727D01*
X160216517Y-121938991D01*
X160373867Y-121906840D01*
X160534361Y-121873322D01*
X160697721Y-121838489D01*
X160863669Y-121802392D01*
X160891972Y-121796166D01*
X160923505Y-121789268D01*
X160953573Y-121782787D01*
X160981326Y-121776899D01*
X161005913Y-121771780D01*
X161026484Y-121767607D01*
X161042186Y-121764556D01*
X161052170Y-121762804D01*
X161054250Y-121762520D01*
X161081629Y-121762603D01*
X161110597Y-121768198D01*
X161139337Y-121778640D01*
X161166032Y-121793263D01*
X161188863Y-121811400D01*
X161189577Y-121812097D01*
X161200334Y-121824458D01*
X161213559Y-121842584D01*
X161228873Y-121865782D01*
X161245898Y-121893362D01*
X161264253Y-121924633D01*
X161283562Y-121958902D01*
X161303444Y-121995479D01*
X161323521Y-122033671D01*
X161343415Y-122072789D01*
X161362747Y-122112139D01*
X161381137Y-122151031D01*
X161398208Y-122188774D01*
X161406938Y-122208888D01*
X161434418Y-122277828D01*
X161456295Y-122342753D01*
X161472564Y-122403631D01*
X161483220Y-122460428D01*
X161488258Y-122513112D01*
X161487674Y-122561650D01*
X161481462Y-122606008D01*
X161470303Y-122644355D01*
X161460721Y-122664617D01*
X161447158Y-122686530D01*
X161431359Y-122707628D01*
X161415072Y-122725441D01*
X161409089Y-122730860D01*
X161393700Y-122742771D01*
X161377081Y-122753287D01*
X161358689Y-122762518D01*
X161337978Y-122770574D01*
X161314406Y-122777565D01*
X161287427Y-122783602D01*
X161256498Y-122788794D01*
X161221074Y-122793252D01*
X161180612Y-122797086D01*
X161134567Y-122800405D01*
X161082396Y-122803321D01*
X161041903Y-122805182D01*
X161022132Y-122805961D01*
X160996304Y-122806876D01*
X160965416Y-122807897D01*
X160930464Y-122808994D01*
X160892446Y-122810137D01*
X160852357Y-122811294D01*
X160811195Y-122812437D01*
X160769956Y-122813534D01*
X160749097Y-122814070D01*
X160643132Y-122816865D01*
X160543623Y-122819728D01*
X160449971Y-122822688D01*
X160361576Y-122825774D01*
X160277840Y-122829016D01*
X160198162Y-122832444D01*
X160121944Y-122836086D01*
X160048587Y-122839972D01*
X159977491Y-122844132D01*
X159908056Y-122848595D01*
X159839683Y-122853390D01*
X159771774Y-122858548D01*
X159703729Y-122864096D01*
X159667833Y-122867168D01*
X159515425Y-122881484D01*
X159368916Y-122897501D01*
X159227314Y-122915426D01*
X159089629Y-122935462D01*
X158954869Y-122957813D01*
X158822042Y-122982686D01*
X158690156Y-123010283D01*
X158558221Y-123040811D01*
X158425244Y-123074473D01*
X158290234Y-123111474D01*
X158152199Y-123152018D01*
X158010149Y-123196311D01*
X157902181Y-123231516D01*
X157845529Y-123250415D01*
X157793101Y-123268181D01*
X157744324Y-123285079D01*
X157698627Y-123301377D01*
X157655437Y-123317340D01*
X157614184Y-123333235D01*
X157574295Y-123349327D01*
X157535199Y-123365884D01*
X157496325Y-123383170D01*
X157457099Y-123401452D01*
X157416952Y-123420997D01*
X157375310Y-123442071D01*
X157331602Y-123464939D01*
X157285257Y-123489869D01*
X157235703Y-123517125D01*
X157182368Y-123546975D01*
X157124680Y-123579684D01*
X157062068Y-123615519D01*
X156997306Y-123652815D01*
X156947113Y-123681743D01*
X156902343Y-123707450D01*
X156862339Y-123730298D01*
X156826445Y-123750648D01*
X156794006Y-123768863D01*
X156764365Y-123785303D01*
X156736866Y-123800330D01*
X156710853Y-123814307D01*
X156685670Y-123827594D01*
X156660662Y-123840554D01*
X156635172Y-123853549D01*
X156612778Y-123864820D01*
X156547461Y-123896741D01*
X156486674Y-123924702D01*
X156429369Y-123949064D01*
X156374501Y-123970188D01*
X156321022Y-123988436D01*
X156267885Y-124004169D01*
X156214043Y-124017748D01*
X156158449Y-124029537D01*
X156110975Y-124038094D01*
X156051699Y-124047475D01*
X155997114Y-124054849D01*
X155945196Y-124060377D01*
X155893926Y-124064223D01*
X155841279Y-124066550D01*
X155785234Y-124067522D01*
X155746708Y-124067509D01*
X155720120Y-124067309D01*
X155695076Y-124067051D01*
X155672670Y-124066751D01*
X155653997Y-124066426D01*
X155640149Y-124066092D01*
X155632223Y-124065767D01*
X155632056Y-124065755D01*
X155541009Y-124056740D01*
X155451200Y-124043096D01*
X155363485Y-124025042D01*
X155278718Y-124002798D01*
X155197756Y-123976583D01*
X155121455Y-123946619D01*
X155063791Y-123919817D01*
X154977957Y-123872919D01*
X154894330Y-123819377D01*
X154812988Y-123759273D01*
X154734006Y-123692690D01*
X154657461Y-123619708D01*
X154583429Y-123540411D01*
X154511985Y-123454879D01*
X154443207Y-123363196D01*
X154377171Y-123265442D01*
X154313952Y-123161701D01*
X154253627Y-123052053D01*
X154249300Y-123043746D01*
X154212293Y-122968734D01*
X154177779Y-122890989D01*
X154145400Y-122809580D01*
X154114798Y-122723574D01*
X154085612Y-122632039D01*
X154069110Y-122575758D01*
X154061543Y-122549169D01*
X153815806Y-122450044D01*
X153776329Y-122434069D01*
X153738813Y-122418791D01*
X153703766Y-122404422D01*
X153671694Y-122391173D01*
X153643102Y-122379257D01*
X153618498Y-122368887D01*
X153598388Y-122360274D01*
X153583278Y-122353630D01*
X153573674Y-122349168D01*
X153570083Y-122347101D01*
X153570069Y-122347055D01*
X153572644Y-122344178D01*
X153580115Y-122336965D01*
X153592098Y-122325762D01*
X153608213Y-122310917D01*
X153628078Y-122292776D01*
X153651310Y-122271686D01*
X153677529Y-122247994D01*
X153706351Y-122222048D01*
X153737395Y-122194193D01*
X153770280Y-122164778D01*
X153795847Y-122141966D01*
X154021625Y-121940741D01*
X154036003Y-121901022D01*
X154064338Y-121830948D01*
X154097586Y-121764045D01*
X154136152Y-121699707D01*
X154180445Y-121637324D01*
X154230870Y-121576287D01*
X154287835Y-121515990D01*
X154304224Y-121499917D01*
X154371538Y-121439739D01*
X154444130Y-121384059D01*
X154521734Y-121333010D01*
X154604086Y-121286722D01*
X154690921Y-121245330D01*
X154781974Y-121208964D01*
X154876979Y-121177758D01*
X154975671Y-121151842D01*
X155021750Y-121141834D01*
X155066147Y-121133197D01*
X155105869Y-121126427D01*
X155142979Y-121121295D01*
X155179540Y-121117572D01*
X155217614Y-121115029D01*
X155259265Y-121113439D01*
X155282806Y-121112916D01*
X155329574Y-121112493D01*
X155371031Y-121113103D01*
X155371031Y-121113103D01*
G37*
X155371031Y-121113103D02*
X155408866Y-121114878D01*
X155444763Y-121117950D01*
X155480412Y-121122451D01*
X155517499Y-121128512D01*
X155542537Y-121133226D01*
X155579505Y-121140873D01*
X155614770Y-121149056D01*
X155649378Y-121158108D01*
X155684376Y-121168364D01*
X155720809Y-121180156D01*
X155759722Y-121193818D01*
X155802161Y-121209684D01*
X155849173Y-121228088D01*
X155884737Y-121242406D01*
X155931958Y-121261805D01*
X155979898Y-121281943D01*
X156028959Y-121303011D01*
X156079547Y-121325199D01*
X156132066Y-121348695D01*
X156186921Y-121373689D01*
X156244514Y-121400372D01*
X156305251Y-121428932D01*
X156369536Y-121459559D01*
X156437773Y-121492442D01*
X156510365Y-121527772D01*
X156587719Y-121565737D01*
X156670236Y-121606528D01*
X156758323Y-121650333D01*
X156816085Y-121679177D01*
X156897799Y-121719964D01*
X156973732Y-121757698D01*
X157044358Y-121792596D01*
X157110149Y-121824875D01*
X157171577Y-121854752D01*
X157229115Y-121882444D01*
X157283235Y-121908167D01*
X157334409Y-121932138D01*
X157383111Y-121954575D01*
X157429811Y-121975695D01*
X157474982Y-121995714D01*
X157519097Y-122014848D01*
X157562629Y-122033316D01*
X157606049Y-122051334D01*
X157649829Y-122069119D01*
X157694443Y-122086888D01*
X157740363Y-122104857D01*
X157757542Y-122111509D01*
X157781524Y-122120793D01*
X157803788Y-122129455D01*
X157823348Y-122137109D01*
X157839219Y-122143366D01*
X157850414Y-122147840D01*
X157855784Y-122150070D01*
X157865832Y-122154573D01*
X157850698Y-122173849D01*
X157838889Y-122187902D01*
X157822920Y-122205482D01*
X157803921Y-122225449D01*
X157783023Y-122246663D01*
X157761357Y-122267986D01*
X157740055Y-122288277D01*
X157720246Y-122306397D01*
X157711681Y-122313920D01*
X157636102Y-122375039D01*
X157554352Y-122433238D01*
X157466747Y-122488375D01*
X157373601Y-122540306D01*
X157275231Y-122588886D01*
X157171952Y-122633973D01*
X157064079Y-122675422D01*
X156951928Y-122713091D01*
X156835814Y-122746835D01*
X156716054Y-122776510D01*
X156676278Y-122785281D01*
X156617253Y-122797567D01*
X156563414Y-122808013D01*
X156513205Y-122816877D01*
X156465074Y-122824413D01*
X156417469Y-122830877D01*
X156368835Y-122836526D01*
X156358778Y-122837588D01*
X156338732Y-122839185D01*
X156313512Y-122840438D01*
X156284439Y-122841348D01*
X156252833Y-122841913D01*
X156220014Y-122842134D01*
X156187303Y-122842011D01*
X156156020Y-122841543D01*
X156127485Y-122840730D01*
X156103019Y-122839572D01*
X156083941Y-122838069D01*
X156080083Y-122837629D01*
X156009587Y-122826359D01*
X155944668Y-122810777D01*
X155885314Y-122790875D01*
X155831511Y-122766642D01*
X155783246Y-122738071D01*
X155740506Y-122705152D01*
X155703275Y-122667875D01*
X155671542Y-122626233D01*
X155645292Y-122580216D01*
X155625814Y-122533556D01*
X155616564Y-122505336D01*
X155609950Y-122479790D01*
X155605611Y-122454670D01*
X155603189Y-122427726D01*
X155602323Y-122396710D01*
X155602311Y-122386690D01*
X155602506Y-122329783D01*
X155579541Y-122327430D01*
X155556577Y-122325078D01*
X155506819Y-122359010D01*
X155507261Y-122408359D01*
X155511246Y-122466590D01*
X155522027Y-122523341D01*
X155539427Y-122578195D01*
X155563267Y-122630732D01*
X155593369Y-122680536D01*
X155629554Y-122727188D01*
X155654774Y-122754155D01*
X155695410Y-122791000D01*
X155739140Y-122823371D01*
X155786472Y-122851491D01*
X155837911Y-122875584D01*
X155893966Y-122895873D01*
X155955143Y-122912584D01*
X156021948Y-122925938D01*
X156055389Y-122931113D01*
X156076455Y-122933389D01*
X156103303Y-122935185D01*
X156134675Y-122936500D01*
X156169315Y-122937334D01*
X156205966Y-122937688D01*
X156243369Y-122937562D01*
X156280269Y-122936956D01*
X156315407Y-122935870D01*
X156347526Y-122934303D01*
X156375370Y-122932257D01*
X156387000Y-122931088D01*
X156501247Y-122915915D01*
X156616379Y-122896055D01*
X156731524Y-122871770D01*
X156845809Y-122843321D01*
X156958359Y-122810969D01*
X157068303Y-122774975D01*
X157174766Y-122735600D01*
X157276876Y-122693106D01*
X157373760Y-122647754D01*
X157428608Y-122619498D01*
X157511718Y-122572751D01*
X157590658Y-122523631D01*
X157664981Y-122472487D01*
X157734241Y-122419668D01*
X157797993Y-122365522D01*
X157855791Y-122310397D01*
X157907188Y-122254643D01*
X157928880Y-122228480D01*
X157943589Y-122210572D01*
X157954647Y-122198259D01*
X157962321Y-122191267D01*
X157966878Y-122189322D01*
X157967106Y-122189373D01*
X157981682Y-122193012D01*
X158002129Y-122197139D01*
X158027296Y-122201588D01*
X158056029Y-122206193D01*
X158087174Y-122210787D01*
X158119579Y-122215204D01*
X158152091Y-122219276D01*
X158183556Y-122222837D01*
X158212821Y-122225720D01*
X158226736Y-122226893D01*
X158256996Y-122228630D01*
X158290509Y-122229311D01*
X158327721Y-122228909D01*
X158369075Y-122227398D01*
X158415017Y-122224750D01*
X158465991Y-122220938D01*
X158522441Y-122215937D01*
X158584812Y-122209719D01*
X158653548Y-122202256D01*
X158674764Y-122199853D01*
X158772696Y-122188039D01*
X158877110Y-122174253D01*
X158987726Y-122158544D01*
X159104267Y-122140962D01*
X159226454Y-122121559D01*
X159354011Y-122100386D01*
X159486657Y-122077492D01*
X159624117Y-122052928D01*
X159766110Y-122026746D01*
X159912360Y-121998995D01*
X160062588Y-121969727D01*
X160216517Y-121938991D01*
X160373867Y-121906840D01*
X160534361Y-121873322D01*
X160697721Y-121838489D01*
X160863669Y-121802392D01*
X160891972Y-121796166D01*
X160923505Y-121789268D01*
X160953573Y-121782787D01*
X160981326Y-121776899D01*
X161005913Y-121771780D01*
X161026484Y-121767607D01*
X161042186Y-121764556D01*
X161052170Y-121762804D01*
X161054250Y-121762520D01*
X161081629Y-121762603D01*
X161110597Y-121768198D01*
X161139337Y-121778640D01*
X161166032Y-121793263D01*
X161188863Y-121811400D01*
X161189577Y-121812097D01*
X161200334Y-121824458D01*
X161213559Y-121842584D01*
X161228873Y-121865782D01*
X161245898Y-121893362D01*
X161264253Y-121924633D01*
X161283562Y-121958902D01*
X161303444Y-121995479D01*
X161323521Y-122033671D01*
X161343415Y-122072789D01*
X161362747Y-122112139D01*
X161381137Y-122151031D01*
X161398208Y-122188774D01*
X161406938Y-122208888D01*
X161434418Y-122277828D01*
X161456295Y-122342753D01*
X161472564Y-122403631D01*
X161483220Y-122460428D01*
X161488258Y-122513112D01*
X161487674Y-122561650D01*
X161481462Y-122606008D01*
X161470303Y-122644355D01*
X161460721Y-122664617D01*
X161447158Y-122686530D01*
X161431359Y-122707628D01*
X161415072Y-122725441D01*
X161409089Y-122730860D01*
X161393700Y-122742771D01*
X161377081Y-122753287D01*
X161358689Y-122762518D01*
X161337978Y-122770574D01*
X161314406Y-122777565D01*
X161287427Y-122783602D01*
X161256498Y-122788794D01*
X161221074Y-122793252D01*
X161180612Y-122797086D01*
X161134567Y-122800405D01*
X161082396Y-122803321D01*
X161041903Y-122805182D01*
X161022132Y-122805961D01*
X160996304Y-122806876D01*
X160965416Y-122807897D01*
X160930464Y-122808994D01*
X160892446Y-122810137D01*
X160852357Y-122811294D01*
X160811195Y-122812437D01*
X160769956Y-122813534D01*
X160749097Y-122814070D01*
X160643132Y-122816865D01*
X160543623Y-122819728D01*
X160449971Y-122822688D01*
X160361576Y-122825774D01*
X160277840Y-122829016D01*
X160198162Y-122832444D01*
X160121944Y-122836086D01*
X160048587Y-122839972D01*
X159977491Y-122844132D01*
X159908056Y-122848595D01*
X159839683Y-122853390D01*
X159771774Y-122858548D01*
X159703729Y-122864096D01*
X159667833Y-122867168D01*
X159515425Y-122881484D01*
X159368916Y-122897501D01*
X159227314Y-122915426D01*
X159089629Y-122935462D01*
X158954869Y-122957813D01*
X158822042Y-122982686D01*
X158690156Y-123010283D01*
X158558221Y-123040811D01*
X158425244Y-123074473D01*
X158290234Y-123111474D01*
X158152199Y-123152018D01*
X158010149Y-123196311D01*
X157902181Y-123231516D01*
X157845529Y-123250415D01*
X157793101Y-123268181D01*
X157744324Y-123285079D01*
X157698627Y-123301377D01*
X157655437Y-123317340D01*
X157614184Y-123333235D01*
X157574295Y-123349327D01*
X157535199Y-123365884D01*
X157496325Y-123383170D01*
X157457099Y-123401452D01*
X157416952Y-123420997D01*
X157375310Y-123442071D01*
X157331602Y-123464939D01*
X157285257Y-123489869D01*
X157235703Y-123517125D01*
X157182368Y-123546975D01*
X157124680Y-123579684D01*
X157062068Y-123615519D01*
X156997306Y-123652815D01*
X156947113Y-123681743D01*
X156902343Y-123707450D01*
X156862339Y-123730298D01*
X156826445Y-123750648D01*
X156794006Y-123768863D01*
X156764365Y-123785303D01*
X156736866Y-123800330D01*
X156710853Y-123814307D01*
X156685670Y-123827594D01*
X156660662Y-123840554D01*
X156635172Y-123853549D01*
X156612778Y-123864820D01*
X156547461Y-123896741D01*
X156486674Y-123924702D01*
X156429369Y-123949064D01*
X156374501Y-123970188D01*
X156321022Y-123988436D01*
X156267885Y-124004169D01*
X156214043Y-124017748D01*
X156158449Y-124029537D01*
X156110975Y-124038094D01*
X156051699Y-124047475D01*
X155997114Y-124054849D01*
X155945196Y-124060377D01*
X155893926Y-124064223D01*
X155841279Y-124066550D01*
X155785234Y-124067522D01*
X155746708Y-124067509D01*
X155720120Y-124067309D01*
X155695076Y-124067051D01*
X155672670Y-124066751D01*
X155653997Y-124066426D01*
X155640149Y-124066092D01*
X155632223Y-124065767D01*
X155632056Y-124065755D01*
X155541009Y-124056740D01*
X155451200Y-124043096D01*
X155363485Y-124025042D01*
X155278718Y-124002798D01*
X155197756Y-123976583D01*
X155121455Y-123946619D01*
X155063791Y-123919817D01*
X154977957Y-123872919D01*
X154894330Y-123819377D01*
X154812988Y-123759273D01*
X154734006Y-123692690D01*
X154657461Y-123619708D01*
X154583429Y-123540411D01*
X154511985Y-123454879D01*
X154443207Y-123363196D01*
X154377171Y-123265442D01*
X154313952Y-123161701D01*
X154253627Y-123052053D01*
X154249300Y-123043746D01*
X154212293Y-122968734D01*
X154177779Y-122890989D01*
X154145400Y-122809580D01*
X154114798Y-122723574D01*
X154085612Y-122632039D01*
X154069110Y-122575758D01*
X154061543Y-122549169D01*
X153815806Y-122450044D01*
X153776329Y-122434069D01*
X153738813Y-122418791D01*
X153703766Y-122404422D01*
X153671694Y-122391173D01*
X153643102Y-122379257D01*
X153618498Y-122368887D01*
X153598388Y-122360274D01*
X153583278Y-122353630D01*
X153573674Y-122349168D01*
X153570083Y-122347101D01*
X153570069Y-122347055D01*
X153572644Y-122344178D01*
X153580115Y-122336965D01*
X153592098Y-122325762D01*
X153608213Y-122310917D01*
X153628078Y-122292776D01*
X153651310Y-122271686D01*
X153677529Y-122247994D01*
X153706351Y-122222048D01*
X153737395Y-122194193D01*
X153770280Y-122164778D01*
X153795847Y-122141966D01*
X154021625Y-121940741D01*
X154036003Y-121901022D01*
X154064338Y-121830948D01*
X154097586Y-121764045D01*
X154136152Y-121699707D01*
X154180445Y-121637324D01*
X154230870Y-121576287D01*
X154287835Y-121515990D01*
X154304224Y-121499917D01*
X154371538Y-121439739D01*
X154444130Y-121384059D01*
X154521734Y-121333010D01*
X154604086Y-121286722D01*
X154690921Y-121245330D01*
X154781974Y-121208964D01*
X154876979Y-121177758D01*
X154975671Y-121151842D01*
X155021750Y-121141834D01*
X155066147Y-121133197D01*
X155105869Y-121126427D01*
X155142979Y-121121295D01*
X155179540Y-121117572D01*
X155217614Y-121115029D01*
X155259265Y-121113439D01*
X155282806Y-121112916D01*
X155329574Y-121112493D01*
X155371031Y-121113103D01*
D12*
X161190000Y-100200000D03*
X161190000Y-100600000D03*
X161190000Y-101000000D03*
X161190000Y-101400000D03*
X161190000Y-101800000D03*
X161190000Y-102200000D03*
X161190000Y-102600000D03*
X161190000Y-103000000D03*
X161190000Y-103400000D03*
X161190000Y-103800000D03*
X161190000Y-107800000D03*
X161190000Y-107400000D03*
X161190000Y-107000000D03*
X161190000Y-106600000D03*
X161190000Y-106200000D03*
X161190000Y-105800000D03*
X161190000Y-105400000D03*
X161190000Y-105000000D03*
X161190000Y-104600000D03*
X161190000Y-104200000D03*
X161190000Y-108200000D03*
X161190000Y-108600000D03*
X161190000Y-109000000D03*
X161190000Y-109400000D03*
X161190000Y-109800000D03*
X161190000Y-110200000D03*
X161190000Y-110600000D03*
X161190000Y-111000000D03*
X161190000Y-111400000D03*
X161190000Y-111800000D03*
X161190000Y-115800000D03*
X161190000Y-115400000D03*
X161190000Y-115000000D03*
X161190000Y-114600000D03*
X161190000Y-114200000D03*
X161190000Y-113800000D03*
X161190000Y-113400000D03*
X161190000Y-113000000D03*
X161190000Y-112600000D03*
X161190000Y-112200000D03*
X158110000Y-112200000D03*
X158110000Y-112600000D03*
X158110000Y-113000000D03*
X158110000Y-113400000D03*
X158110000Y-113800000D03*
X158110000Y-114200000D03*
X158110000Y-114600000D03*
X158110000Y-115000000D03*
X158110000Y-115400000D03*
X158110000Y-115800000D03*
X158110000Y-111800000D03*
X158110000Y-111400000D03*
X158110000Y-111000000D03*
X158110000Y-110600000D03*
X158110000Y-110200000D03*
X158110000Y-109800000D03*
X158110000Y-109400000D03*
X158110000Y-109000000D03*
X158110000Y-108600000D03*
X158110000Y-108200000D03*
X158110000Y-104200000D03*
X158110000Y-104600000D03*
X158110000Y-105000000D03*
X158110000Y-105400000D03*
X158110000Y-105800000D03*
X158110000Y-106200000D03*
X158110000Y-106600000D03*
X158110000Y-107000000D03*
X158110000Y-107400000D03*
X158110000Y-107800000D03*
X158110000Y-103800000D03*
X158110000Y-103400000D03*
X158110000Y-103000000D03*
X158110000Y-102600000D03*
X158110000Y-102200000D03*
X158110000Y-101800000D03*
X158110000Y-101400000D03*
X158110000Y-101000000D03*
X158110000Y-100600000D03*
X158110000Y-100200000D03*
D13*
X158461920Y-94250000D03*
X158461920Y-93599760D03*
X158461920Y-92949520D03*
X155800000Y-92949520D03*
X155800000Y-93599760D03*
X155800000Y-94250000D03*
X164300000Y-98250000D03*
X164300000Y-97599760D03*
X164300000Y-96949520D03*
X161638080Y-96949520D03*
X161638080Y-97599760D03*
X161638080Y-98250000D03*
X158611920Y-96700000D03*
X158611920Y-96049760D03*
X158611920Y-95399520D03*
X155950000Y-95399520D03*
X155950000Y-96049760D03*
X155950000Y-96700000D03*
M02*
